<svg width="34" height="35" viewBox="0 0 34 35" fill="none" xmlns="http://www.w3.org/2000/svg">
<path fill-rule="evenodd" clip-rule="evenodd" d="M19.074 0.123219C18.866 0.0388547 18.6432 -0.00298599 18.4187 0.000165685C18.1943 0.00331736 17.9727 0.0513978 17.7671 0.14157C17.5616 0.231742 17.3762 0.362178 17.2218 0.525182C17.0675 0.688185 16.9474 0.880452 16.8685 1.09064C16.7897 1.30082 16.7538 1.52467 16.7629 1.74896C16.772 1.97325 16.8259 2.19345 16.9215 2.39656C17.0171 2.59967 17.1524 2.78157 17.3195 2.93153C17.4865 3.08149 17.6819 3.19647 17.8941 3.26969L18.484 3.49156V8.81636L1.23391 13.5226C0.842232 13.6307 0.502946 13.8769 0.278832 14.2158C0.0547178 14.5547 -0.0390521 14.9633 0.0148744 15.366C0.0688009 15.7687 0.266773 16.1383 0.572156 16.4063C0.87754 16.6743 1.26966 16.8226 1.67596 16.8237V26.9086C1.67596 27.8001 2.03013 28.6552 2.66056 29.2856C3.29098 29.916 4.14602 30.2702 5.03758 30.2702H28.5689C29.4605 30.2702 30.3155 29.916 30.9459 29.2856C31.5764 28.6552 31.9305 27.8001 31.9305 26.9086V8.41969C32.324 8.4193 32.7049 8.28087 33.0068 8.02852C33.3087 7.77617 33.5125 7.4259 33.5827 7.03873C33.6529 6.65156 33.585 6.25203 33.3909 5.90976C33.1968 5.56748 32.8888 5.30415 32.5205 5.16565L19.074 0.123219ZM28.5689 7.27338L21.8457 4.75217V26.9086H28.5689V7.27338ZM13.4416 21.8662V26.9086H18.484V12.3024L5.03758 15.9665V26.9086H10.08V21.8662C10.08 21.4204 10.2571 20.9929 10.5723 20.6777C10.8875 20.3624 11.315 20.1854 11.7608 20.1854C12.2066 20.1854 12.6341 20.3624 12.9493 20.6777C13.2645 20.9929 13.4416 21.4204 13.4416 21.8662ZM22.6861 13.4621C22.6861 13.0163 22.8632 12.5888 23.1784 12.2736C23.4936 11.9584 23.9211 11.7813 24.3669 11.7813H26.0477C26.4935 11.7813 26.921 11.9584 27.2362 12.2736C27.5514 12.5888 27.7285 13.0163 27.7285 13.4621C27.7285 13.9079 27.5514 14.3354 27.2362 14.6506C26.921 14.9658 26.4935 15.1429 26.0477 15.1429H24.3669C23.9211 15.1429 23.4936 14.9658 23.1784 14.6506C22.8632 14.3354 22.6861 13.9079 22.6861 13.4621ZM24.3669 18.5045C23.9211 18.5045 23.4936 18.6816 23.1784 18.9968C22.8632 19.3121 22.6861 19.7396 22.6861 20.1854C22.6861 20.6311 22.8632 21.0587 23.1784 21.3739C23.4936 21.6891 23.9211 21.8662 24.3669 21.8662H26.0477C26.4935 21.8662 26.921 21.6891 27.2362 21.3739C27.5514 21.0587 27.7285 20.6311 27.7285 20.1854C27.7285 19.7396 27.5514 19.3121 27.2362 18.9968C26.921 18.6816 26.4935 18.5045 26.0477 18.5045H24.3669Z" fill="white"/>
</svg>
