<svg width="48" height="48" viewBox="0 0 48 48" fill="none" xmlns="http://www.w3.org/2000/svg">
<path d="M4.43946 4.44002C4.18543 4.694 4.03097 5.03071 4.00418 5.38893C3.97739 5.74714 4.08004 6.10308 4.29346 6.39202L4.43946 6.56002L12.5075 14.63C8.57533 17.3891 5.76756 21.4712 4.59746 26.13C4.50742 26.5136 4.57194 26.9173 4.77708 27.2537C4.98221 27.5901 5.31148 27.8323 5.69374 27.9279C6.07599 28.0236 6.48052 27.965 6.81991 27.7647C7.15929 27.5645 7.40627 27.2388 7.50746 26.858C8.54708 22.7229 11.1027 19.1294 14.6675 16.79L18.2875 20.41C16.8415 21.921 16.0446 23.9382 16.0677 26.0295C16.0908 28.1208 16.9319 30.1199 18.4109 31.5986C19.8899 33.0773 21.8891 33.9181 23.9804 33.9408C26.0717 33.9635 28.0887 33.1663 29.5995 31.72L41.4375 43.56C41.7051 43.8284 42.0644 43.9855 42.4432 43.9998C42.822 44.014 43.1921 43.8843 43.4791 43.6368C43.7662 43.3893 43.9489 43.0422 43.9905 42.6655C44.0321 42.2888 43.9296 41.9102 43.7035 41.606L43.5575 41.438L31.3315 29.21L31.3335 29.206L17.4335 15.314L17.4375 15.31L15.1715 13.05L6.55946 4.44002C6.27821 4.15912 5.89697 4.00134 5.49946 4.00134C5.10196 4.00134 4.72072 4.15912 4.43946 4.44002ZM23.9995 11C21.9995 11 20.0595 11.296 18.2215 11.85L20.6955 14.322C24.9746 13.4747 29.4156 14.3042 33.1004 16.6389C36.7852 18.9736 39.432 22.635 40.4935 26.866C40.5971 27.2439 40.8444 27.5662 41.1826 27.764C41.5208 27.9619 41.923 28.0196 42.3032 27.9247C42.6833 27.8299 43.0113 27.59 43.2169 27.2565C43.4225 26.923 43.4895 26.5223 43.4035 26.14C42.3199 21.8144 39.8217 17.975 36.306 15.2319C32.7903 12.4888 28.4587 10.9992 23.9995 11ZM24.3895 18.02L31.9915 25.62C31.8931 23.6358 31.0606 21.7591 29.6556 20.3545C28.2507 18.9499 26.3737 18.1178 24.3895 18.02Z" fill="black"/>
</svg>
